<svg width="20" height="20" viewBox="0 0 20 20" fill="none" xmlns="http://www.w3.org/2000/svg">
<g clip-path="url(#clip0_3_130)">
<path d="M17.8125 10.0781C17.7089 10.0781 17.6095 10.1193 17.5363 10.1925C17.463 10.2658 17.4219 10.3652 17.4219 10.4688V17.8625C17.4219 17.9277 17.409 17.9924 17.3841 18.0527C17.3591 18.1129 17.3225 18.1677 17.2763 18.2138C17.2302 18.26 17.1754 18.2966 17.1152 18.3216C17.0549 18.3465 16.9902 18.3594 16.925 18.3594H2.1375C2.07225 18.3594 2.00764 18.3465 1.94735 18.3216C1.88707 18.2966 1.8323 18.26 1.78616 18.2138C1.74002 18.1677 1.70342 18.1129 1.67845 18.0527C1.65348 17.9924 1.64062 17.9277 1.64062 17.8625V3.075C1.64062 2.94322 1.69298 2.81684 1.78616 2.72366C1.87934 2.63048 2.00572 2.57812 2.1375 2.57812H9.53125C9.63484 2.57812 9.73422 2.53697 9.80747 2.46371C9.88072 2.39046 9.92188 2.2911 9.92188 2.1875C9.92188 2.0839 9.88072 1.98454 9.80747 1.91129C9.73422 1.83803 9.63484 1.79688 9.53125 1.79688H2.1375C1.79852 1.79688 1.47343 1.93153 1.23373 2.17123C0.994034 2.41092 0.859375 2.73602 0.859375 3.075V17.8625C0.859375 18.2015 0.994034 18.5266 1.23373 18.7663C1.47343 19.006 1.79852 19.1406 2.1375 19.1406H16.925C17.0928 19.1406 17.2591 19.1076 17.4141 19.0433C17.5692 18.9791 17.7101 18.885 17.8288 18.7663C17.9475 18.6476 18.0416 18.5067 18.1058 18.3516C18.1701 18.1966 18.2031 18.0303 18.2031 17.8625V10.4688C18.2031 10.3652 18.162 10.2658 18.0887 10.1925C18.0155 10.1193 17.9161 10.0781 17.8125 10.0781Z" fill="white"/>
<path d="M18.4188 1.61564C18.2069 1.40352 17.9553 1.23523 17.6783 1.12042C17.4014 1.0056 17.1045 0.946503 16.8047 0.946503C16.5049 0.946503 16.208 1.0056 15.9311 1.12042C15.6541 1.23523 15.4025 1.40352 15.1906 1.61564L10.7938 6.01253C10.7442 6.06169 10.7086 6.12319 10.6906 6.19066L9.7344 9.82191C9.71971 9.87972 9.71837 9.94012 9.73046 9.99856C9.74252 10.057 9.76774 10.1119 9.80415 10.1592C9.84059 10.2064 9.88727 10.2447 9.94068 10.2713C9.99409 10.2979 10.0529 10.312 10.1125 10.3125C10.1457 10.3173 10.1794 10.3173 10.2125 10.3125L13.8438 9.34378C13.9112 9.32578 13.9727 9.29019 14.0219 9.24066L18.4188 4.84378C18.8464 4.41547 19.0866 3.83494 19.0866 3.22972C19.0866 2.62445 18.8464 2.04394 18.4188 1.61564ZM17.8656 4.29378L13.5438 8.61566L10.6625 9.37503L11.4188 6.49066L15.7438 2.16877C15.8829 2.02902 16.0482 1.91813 16.2302 1.84247C16.4123 1.7668 16.6075 1.72785 16.8047 1.72785C17.0019 1.72785 17.1971 1.7668 17.3791 1.84247C17.5612 1.91813 17.7266 2.02902 17.8656 2.16877C18.0055 2.30812 18.1164 2.47371 18.1921 2.65604C18.2678 2.83837 18.3068 3.03384 18.3068 3.23128C18.3068 3.42869 18.2678 3.62416 18.1921 3.8065C18.1164 3.98881 18.0055 4.15441 17.8656 4.29378Z" fill="white"/>
</g>
<defs>
<clipPath id="clip0_3_130">
<rect width="20" height="20" fill="white"/>
</clipPath>
</defs>
</svg>
