<svg width="60" height="78" viewBox="0 0 60 78" fill="none" xmlns="http://www.w3.org/2000/svg">
<path d="M6.66667 3.99998C2.98467 3.99998 0 6.99998 0 10.6667V37.3333V50.6667V70.6667C0 74.3333 2.98467 77.3333 6.66667 77.3333H53.3333C57.0167 77.3333 60 74.3333 60 70.6667V50.6667V37.3333V24L40 3.99998H6.66667Z" fill="#95A5A6"/>
<path d="M6.66667 0.666656C2.98467 0.666656 0 3.66666 0 7.33332V34V47.3333V67.3333C0 71 2.98467 74 6.66667 74H53.3333C57.0167 74 60 71 60 67.3333V47.3333V34V20.6667L40 0.666656H6.66667Z" fill="#BDC3C7"/>
<path d="M60 20.6667L40 0.666656V14C40 17.6667 42.9833 20.6667 46.6667 20.6667H60Z" fill="#95A5A6"/>
</svg>
