<svg width="24" height="20" viewBox="0 0 24 20" fill="none" xmlns="http://www.w3.org/2000/svg">
<path d="M21 3.00002H11.72L11.4 2.00002C11.1926 1.41325 10.8077 0.905526 10.2989 0.547183C9.79005 0.188841 9.18236 -0.0023769 8.56 2.23036e-05H3C2.20435 2.23036e-05 1.44129 0.316093 0.87868 0.878702C0.31607 1.44131 0 2.20437 0 3.00002V17C0 17.7957 0.31607 18.5587 0.87868 19.1213C1.44129 19.684 2.20435 20 3 20H21C21.7956 20 22.5587 19.684 23.1213 19.1213C23.6839 18.5587 24 17.7957 24 17V6.00002C24 5.20437 23.6839 4.44131 23.1213 3.8787C22.5587 3.31609 21.7956 3.00002 21 3.00002ZM22 17C22 17.2652 21.8946 17.5196 21.7071 17.7071C21.5196 17.8947 21.2652 18 21 18H3C2.73478 18 2.48043 17.8947 2.29289 17.7071C2.10536 17.5196 2 17.2652 2 17V3.00002C2 2.73481 2.10536 2.48045 2.29289 2.29292C2.48043 2.10538 2.73478 2.00002 3 2.00002H8.56C8.76964 1.99948 8.97416 2.06484 9.14463 2.18686C9.3151 2.30889 9.44291 2.4814 9.51 2.68002L10.28 5.00002H21C21.2652 5.00002 21.5196 5.10538 21.7071 5.29292C21.8946 5.48045 22 5.73481 22 6.00002V17Z" fill="white"/>
<path d="M11.6364 15.2046V7.70458H12.9091V15.2046H11.6364ZM8.52273 12.0909V10.8182H16.0227V12.0909H8.52273Z" fill="white"/>
</svg>
